<svg width="458" height="90" viewBox="0 0 458 90" fill="none" xmlns="http://www.w3.org/2000/svg">
<path d="M281.726 88H265.788V48.1562C265.788 47.0625 265.573 46.0273 265.144 45.0508C264.753 44.0742 264.187 43.2148 263.444 42.4727C262.702 41.7305 261.843 41.1641 260.866 40.7734C259.89 40.3438 258.854 40.1289 257.761 40.1289C256.667 40.1289 255.632 40.3438 254.655 40.7734C253.718 41.1641 252.878 41.7305 252.136 42.4727C251.433 43.2148 250.866 44.0742 250.437 45.0508C250.046 46.0273 249.851 47.0625 249.851 48.1562V88H233.854V48.1562C233.854 47.0625 233.64 46.0273 233.21 45.0508C232.819 44.0742 232.253 43.2148 231.511 42.4727C230.769 41.7305 229.909 41.1641 228.933 40.7734C227.956 40.3438 226.921 40.1289 225.827 40.1289C224.733 40.1289 223.698 40.3438 222.722 40.7734C221.784 41.1641 220.944 41.7305 220.202 42.4727C219.499 43.2148 218.933 44.0742 218.503 45.0508C218.112 46.0273 217.917 47.0625 217.917 48.1562V88H201.921V25.2461H205.788L210.124 30.0508C212.351 28.1758 214.792 26.7305 217.448 25.7148C220.144 24.6602 222.937 24.1328 225.827 24.1328C228.757 24.1328 231.608 24.6797 234.382 25.7734C237.194 26.8672 239.655 28.7617 241.765 31.457C242.741 30.1289 243.854 28.9961 245.104 28.0586C246.354 27.1211 247.663 26.3594 249.03 25.7734C250.437 25.1875 251.882 24.7773 253.366 24.543C254.851 24.2695 256.315 24.1328 257.761 24.1328C261.081 24.1328 264.187 24.7578 267.077 26.0078C270.007 27.2578 272.546 28.9766 274.694 31.1641C276.882 33.3125 278.601 35.8516 279.851 38.7812C281.101 41.7109 281.726 44.8359 281.726 48.1562V88ZM354.339 56.0664C354.339 60.7539 353.499 65.1289 351.819 69.1914C350.14 73.2148 347.854 76.7109 344.964 79.6797C342.073 82.6094 338.675 84.9336 334.769 86.6523C330.901 88.332 326.741 89.1719 322.288 89.1719C317.874 89.1719 313.714 88.332 309.808 86.6523C305.94 84.9336 302.542 82.6094 299.612 79.6797C296.722 76.7109 294.437 73.2148 292.757 69.1914C291.077 65.1289 290.237 60.7539 290.237 56.0664C290.237 51.3008 291.077 46.8867 292.757 42.8242C294.437 38.7617 296.722 35.2656 299.612 32.3359C302.542 29.3672 305.94 27.043 309.808 25.3633C313.714 23.6836 317.874 22.8438 322.288 22.8438C326.741 22.8438 330.901 23.6445 334.769 25.2461C338.675 26.8086 342.073 29.0547 344.964 31.9844C347.854 34.875 350.14 38.3711 351.819 42.4727C353.499 46.5352 354.339 51.0664 354.339 56.0664ZM338.226 56.0664C338.226 53.4883 337.796 51.1641 336.937 49.0938C336.116 46.9844 334.983 45.1875 333.538 43.7031C332.093 42.1797 330.394 41.0273 328.44 40.2461C326.526 39.4258 324.476 39.0156 322.288 39.0156C320.101 39.0156 318.03 39.4258 316.077 40.2461C314.163 41.0273 312.483 42.1797 311.038 43.7031C309.632 45.1875 308.519 46.9844 307.698 49.0938C306.878 51.1641 306.468 53.4883 306.468 56.0664C306.468 58.4883 306.878 60.7344 307.698 62.8047C308.519 64.875 309.632 66.6719 311.038 68.1953C312.483 69.7188 314.163 70.9297 316.077 71.8281C318.03 72.6875 320.101 73.1172 322.288 73.1172C324.476 73.1172 326.526 72.707 328.44 71.8867C330.394 71.0664 332.093 69.9141 333.538 68.4297C334.983 66.9453 336.116 65.1484 336.937 63.0391C337.796 60.9297 338.226 58.6055 338.226 56.0664ZM397.89 88H361.327V72.0625H397.89C398.983 72.0625 399.921 71.6719 400.702 70.8906C401.483 70.1094 401.874 69.1719 401.874 68.0781C401.874 66.9453 401.483 66.2031 400.702 65.8516C399.921 65.5 398.983 65.3242 397.89 65.3242H381.249C378.476 65.3242 375.878 64.7969 373.456 63.7422C371.034 62.6875 368.925 61.2617 367.128 59.4648C365.331 57.6289 363.905 55.5 362.851 53.0781C361.835 50.6562 361.327 48.0586 361.327 45.2852C361.327 42.5117 361.835 39.9141 362.851 37.4922C363.905 35.0703 365.331 32.9609 367.128 31.1641C368.925 29.3672 371.034 27.9609 373.456 26.9453C375.878 25.8906 378.476 25.3633 381.249 25.3633H413.651V41.3008H381.249C380.155 41.3008 379.218 41.6914 378.437 42.4727C377.655 43.2539 377.265 44.1914 377.265 45.2852C377.265 46.418 377.655 47.3945 378.437 48.2148C379.218 48.9961 380.155 49.3867 381.249 49.3867H397.89C400.624 49.3867 403.202 49.8555 405.624 50.793C408.046 51.6914 410.155 52.9609 411.952 54.6016C413.749 56.2422 415.175 58.2148 416.229 60.5195C417.284 62.8242 417.812 65.3438 417.812 68.0781C417.812 70.8516 417.284 73.4492 416.229 75.8711C415.175 78.2539 413.749 80.3633 411.952 82.1992C410.155 83.9961 408.046 85.4219 405.624 86.4766C403.202 87.4922 400.624 88 397.89 88Z" fill="#6C8AEF" fill-opacity="1"/>
<path d="M60.9375 15.7266L49.2188 27.5039C48.6328 25.8633 47.832 24.3984 46.8164 23.1094C45.8008 21.7812 44.6484 20.668 43.3594 19.7695C42.1094 18.8711 40.7422 18.1875 39.2578 17.7188C37.7734 17.25 36.25 17.0156 34.6875 17.0156C32.5 17.0156 30.4297 17.4648 28.4766 18.3633C26.5625 19.2617 24.8828 20.5312 23.4375 22.1719C22.0312 23.7734 20.918 25.6875 20.0977 27.9141C19.2773 30.1406 18.8672 32.6016 18.8672 35.2969C18.8672 37.4844 19.2773 39.5352 20.0977 41.4492C20.918 43.3633 22.0312 45.043 23.4375 46.4883C24.8828 47.9336 26.5625 49.0664 28.4766 49.8867C30.4297 50.707 32.5 51.1172 34.6875 51.1172C36.25 51.1172 37.7539 50.9023 39.1992 50.4727C40.6445 50.043 41.9922 49.4375 43.2422 48.6562C44.5312 47.8359 45.6641 46.8594 46.6406 45.7266C47.6562 44.5547 48.4766 43.2656 49.1016 41.8594L60.8203 53.6367C59.3359 55.7461 57.6172 57.6406 55.6641 59.3203C53.75 61 51.6602 62.4258 49.3945 63.5977C47.168 64.7695 44.8047 65.6484 42.3047 66.2344C39.8438 66.8594 37.3047 67.1719 34.6875 67.1719C30.2734 67.1719 26.1133 66.3516 22.207 64.7109C18.3398 63.0312 14.9414 60.7461 12.0117 57.8555C9.12109 54.9648 6.83594 51.5859 5.15625 47.7188C3.47656 43.8516 2.63672 39.7109 2.63672 35.2969C2.63672 30.4922 3.47656 26 5.15625 21.8203C6.83594 17.6406 9.12109 14.0078 12.0117 10.9219C14.9414 7.79687 18.3398 5.33594 22.207 3.53906C26.1133 1.74219 30.2734 0.84375 34.6875 0.84375C37.3047 0.84375 39.8633 1.17578 42.3633 1.83984C44.9023 2.50391 47.3047 3.48047 49.5703 4.76953C51.875 6.01953 53.9844 7.5625 55.8984 9.39844C57.8516 11.2344 59.5312 13.3438 60.9375 15.7266ZM128.746 34.0664C128.746 38.7539 127.906 43.1289 126.227 47.1914C124.547 51.2148 122.262 54.7109 119.371 57.6797C116.48 60.6094 113.082 62.9336 109.176 64.6523C105.309 66.332 101.148 67.1719 96.6953 67.1719C92.2812 67.1719 88.1211 66.332 84.2148 64.6523C80.3477 62.9336 76.9492 60.6094 74.0195 57.6797C71.1289 54.7109 68.8438 51.2148 67.1641 47.1914C65.4844 43.1289 64.6445 38.7539 64.6445 34.0664C64.6445 29.3008 65.4844 24.8867 67.1641 20.8242C68.8438 16.7617 71.1289 13.2656 74.0195 10.3359C76.9492 7.36719 80.3477 5.04297 84.2148 3.36328C88.1211 1.68359 92.2812 0.84375 96.6953 0.84375C101.148 0.84375 105.309 1.64453 109.176 3.24609C113.082 4.80859 116.48 7.05469 119.371 9.98438C122.262 12.875 124.547 16.3711 126.227 20.4727C127.906 24.5352 128.746 29.0664 128.746 34.0664ZM112.633 34.0664C112.633 31.4883 112.203 29.1641 111.344 27.0938C110.523 24.9844 109.391 23.1875 107.945 21.7031C106.5 20.1797 104.801 19.0273 102.848 18.2461C100.934 17.4258 98.8828 17.0156 96.6953 17.0156C94.5078 17.0156 92.4375 17.4258 90.4844 18.2461C88.5703 19.0273 86.8906 20.1797 85.4453 21.7031C84.0391 23.1875 82.9258 24.9844 82.1055 27.0938C81.2852 29.1641 80.875 31.4883 80.875 34.0664C80.875 36.4883 81.2852 38.7344 82.1055 40.8047C82.9258 42.875 84.0391 44.6719 85.4453 46.1953C86.8906 47.7188 88.5703 48.9297 90.4844 49.8281C92.4375 50.6875 94.5078 51.1172 96.6953 51.1172C98.8828 51.1172 100.934 50.707 102.848 49.8867C104.801 49.0664 106.5 47.9141 107.945 46.4297C109.391 44.9453 110.523 43.1484 111.344 41.0391C112.203 38.9297 112.633 36.6055 112.633 34.0664ZM183.957 58.6758C182.668 59.8477 181.281 60.9609 179.797 62.0156C178.352 63.0312 176.828 63.9297 175.227 64.7109C173.625 65.4531 171.965 66.0391 170.246 66.4688C168.566 66.9375 166.848 67.1719 165.09 67.1719C161.223 67.1719 157.59 66.4883 154.191 65.1211C150.793 63.7539 147.805 61.8203 145.227 59.3203C142.688 56.7812 140.676 53.7148 139.191 50.1211C137.746 46.4883 137.023 42.4258 137.023 37.9336V3.24609H152.961V37.9336C152.961 40.043 153.273 41.9375 153.898 43.6172C154.562 45.2578 155.441 46.6445 156.535 47.7773C157.629 48.9102 158.898 49.7695 160.344 50.3555C161.828 50.9414 163.41 51.2344 165.09 51.2344C166.73 51.2344 168.273 50.8633 169.719 50.1211C171.203 49.3398 172.492 48.3242 173.586 47.0742C174.68 45.8242 175.539 44.418 176.164 42.8555C176.789 41.2539 177.102 39.6133 177.102 37.9336V3.24609H193.098V66H189.23L183.957 58.6758ZM221.59 66H205.594V3.24609H209.461L214.734 10.6875C217.312 8.34375 220.242 6.54688 223.523 5.29688C226.805 4.00781 230.203 3.36328 233.719 3.36328H247.84V19.3008H233.719C232.039 19.3008 230.457 19.6133 228.973 20.2383C227.488 20.8633 226.199 21.7227 225.105 22.8164C224.012 23.9102 223.152 25.1992 222.527 26.6836C221.902 28.168 221.59 29.75 221.59 31.4297V66ZM289.281 66H252.719V50.0625H289.281C290.375 50.0625 291.312 49.6719 292.094 48.8906C292.875 48.1094 293.266 47.1719 293.266 46.0781C293.266 44.9453 292.875 44.2031 292.094 43.8516C291.312 43.5 290.375 43.3242 289.281 43.3242H272.641C269.867 43.3242 267.27 42.7969 264.848 41.7422C262.426 40.6875 260.316 39.2617 258.52 37.4648C256.723 35.6289 255.297 33.5 254.242 31.0781C253.227 28.6562 252.719 26.0586 252.719 23.2852C252.719 20.5117 253.227 17.9141 254.242 15.4922C255.297 13.0703 256.723 10.9609 258.52 9.16406C260.316 7.36719 262.426 5.96094 264.848 4.94531C267.27 3.89062 269.867 3.36328 272.641 3.36328H305.043V19.3008H272.641C271.547 19.3008 270.609 19.6914 269.828 20.4727C269.047 21.2539 268.656 22.1914 268.656 23.2852C268.656 24.418 269.047 25.3945 269.828 26.2148C270.609 26.9961 271.547 27.3867 272.641 27.3867H289.281C292.016 27.3867 294.594 27.8555 297.016 28.793C299.438 29.6914 301.547 30.9609 303.344 32.6016C305.141 34.2422 306.566 36.2148 307.621 38.5195C308.676 40.8242 309.203 43.3438 309.203 46.0781C309.203 48.8516 308.676 51.4492 307.621 53.8711C306.566 56.2539 305.141 58.3633 303.344 60.1992C301.547 61.9961 299.438 63.4219 297.016 64.4766C294.594 65.4922 292.016 66 289.281 66ZM342.969 50.6484C343.594 50.8438 344.219 50.9805 344.844 51.0586C345.469 51.0977 346.094 51.1172 346.719 51.1172C348.281 51.1172 349.785 50.9023 351.23 50.4727C352.676 50.043 354.023 49.4375 355.273 48.6562C356.562 47.8359 357.695 46.8594 358.672 45.7266C359.688 44.5547 360.508 43.2656 361.133 41.8594L372.852 53.6367C371.367 55.7461 369.648 57.6406 367.695 59.3203C365.781 61 363.691 62.4258 361.426 63.5977C359.199 64.7695 356.836 65.6484 354.336 66.2344C351.875 66.8594 349.336 67.1719 346.719 67.1719C342.305 67.1719 338.145 66.3516 334.238 64.7109C330.371 63.0703 326.973 60.7852 324.043 57.8555C321.152 54.9258 318.867 51.4492 317.188 47.4258C315.508 43.3633 314.668 38.9102 314.668 34.0664C314.668 29.1055 315.508 24.5742 317.188 20.4727C318.867 16.3711 321.152 12.875 324.043 9.98438C326.973 7.09375 330.371 4.84766 334.238 3.24609C338.145 1.64453 342.305 0.84375 346.719 0.84375C349.336 0.84375 351.895 1.15625 354.395 1.78125C356.895 2.40625 359.258 3.30469 361.484 4.47656C363.75 5.64844 365.859 7.09375 367.812 8.8125C369.766 10.4922 371.484 12.3867 372.969 14.4961L342.969 50.6484ZM351.172 17.6602C350.43 17.3867 349.688 17.2109 348.945 17.1328C348.242 17.0547 347.5 17.0156 346.719 17.0156C344.531 17.0156 342.461 17.4258 340.508 18.2461C338.594 19.0273 336.914 20.1602 335.469 21.6445C334.062 23.1289 332.949 24.9258 332.129 27.0352C331.309 29.1055 330.898 31.4492 330.898 34.0664C330.898 34.6523 330.918 35.3164 330.957 36.0586C331.035 36.8008 331.133 37.5625 331.25 38.3438C331.406 39.0859 331.582 39.8086 331.777 40.5117C331.973 41.2148 332.227 41.8398 332.539 42.3867L351.172 17.6602Z" fill="#E94F9B" fill-opacity="1"/>
</svg>
