<svg width="40" height="40" viewBox="0 0 40 40" fill="none" xmlns="http://www.w3.org/2000/svg">
<path d="M9.50012 5.6875C12.1251 4.125 15.7501 1.9375 15.9376 6.4375C16.3126 15.25 17.5001 17.6875 17.5001 17.6875L7.62512 11.125C7.62512 11.125 3.93762 14.3125 2.00012 14.875C-0.374876 15.5625 3.00012 8.875 5.62512 7C6.50012 6.4375 8.62512 6.25 9.50012 5.6875Z" fill="#B2B6B8"/>
<path d="M11.9375 7.6875C13.5 9.8125 15.375 18 15.375 18L12.5 18.75C12.5 18.75 11.625 15.875 7.6875 11.125L11.9375 7.6875Z" fill="#FFC5D3"/>
<path d="M30.5 3.1875C27.875 1.625 24.25 -0.5625 24.0625 3.9375C23.6875 12.75 21.875 17.0625 21.875 17.0625L32.375 8.625C32.375 8.625 36.0625 11.8125 38 12.375C40.375 13.0625 37 6.375 34.375 4.5C33.5 3.9375 31.375 3.75 30.5 3.1875Z" fill="#B2B6B8"/>
<path d="M28.0625 5.1875C26.5 7.3125 24.625 15.5 24.625 15.5L27.5 16.25C27.5 16.25 28.375 13.375 32.3125 8.625L28.0625 5.1875Z" fill="#FFC5D3"/>
<path d="M8.56254 21.75C8.56254 17.125 12.125 13.75 20 13.75C27.9375 13.75 31.4375 17.125 31.4375 21.75C31.4375 25.6875 37.375 31.375 32.0625 35.25C29.5625 37.125 25.125 38.75 20 38.75C14.875 38.75 10.4375 37.125 7.87504 35.25C2.62504 31.4375 8.56254 25.6875 8.56254 21.75Z" fill="#C4C5C6"/>
<path d="M25.3749 28.25C25.2499 24.5 22.6249 20 20.9999 17.875C20.2499 16.9375 19.6249 16.9375 18.9374 17.875C17.3124 20 14.7499 24.5 14.5624 28.25C11.6249 27.875 8.2499 28 7.5624 29.625C6.2499 32.75 12.4374 38 19.9374 38C27.4374 38 33.6249 32.75 32.3124 29.625C31.6874 28.0625 28.3124 27.875 25.3749 28.25Z" fill="white"/>
<path d="M25.875 32.75C25.25 33.25 24.375 33.5625 23.5 33.5625C22.625 33.625 21.75 33.375 21 32.9375C20.625 32.6875 20.25 32.375 20 32C19.75 32.375 19.375 32.6875 19 32.9375C18.25 33.375 17.375 33.625 16.5 33.5625C15.6875 33.5 14.8125 33.25 14.125 32.75C13.75 32.4375 15.8125 36.375 20 36.375C24.1875 36.375 26.25 32.4375 25.875 32.75Z" fill="#4C5359"/>
<path d="M23.3126 23.8125C23.3126 23.8125 23.5626 21.25 25.6251 20.4375C27.9376 19.5 29.5001 21.75 29.9376 23.0625C30.5626 24.9375 29.7501 27.0625 29.5626 27.5C29.4376 27.8125 27.6876 29.3125 23.8126 27.875C23.8126 27.875 22.8751 25.75 23.3126 23.8125Z" fill="white"/>
<path d="M23.3125 23.8125C23.375 22.9375 23.625 22 24.1875 21.25C24.4375 20.875 24.8125 20.5625 25.1875 20.3125C25.375 20.1875 25.5625 20.125 25.8125 20.0625C26.0625 20 26.25 19.9375 26.5 19.9375C27.4375 19.8125 28.375 20.25 29 20.875C29.6875 21.5 30.1875 22.375 30.4375 23.3125C30.6875 24.25 30.625 25.25 30.375 26.1875C30.25 26.625 30.125 27.0625 29.9375 27.5L29.875 27.6875L29.8125 27.75L29.75 27.8125C29.75 27.875 29.6875 27.875 29.6875 27.875C29.5625 28 29.5 28.0625 29.375 28.125C29.1875 28.25 29 28.375 28.75 28.4375C27.9375 28.75 27 28.75 26.1875 28.6875C25.375 28.5625 24.5625 28.3125 23.8125 27.9375C24.625 28.125 25.4375 28.3125 26.25 28.3125C27.0625 28.3125 27.875 28.25 28.5625 27.875C28.75 27.8125 28.875 27.6875 29.0625 27.5625L29.25 27.375V27.3125L29.3125 27.1875C29.4375 26.8125 29.5625 26.375 29.6875 26C29.875 25.1875 29.875 24.3125 29.6875 23.5C29.5 22.75 29.0625 22 28.5 21.4375C27.9375 20.875 27.25 20.5 26.5 20.5625C26.3125 20.5625 26.125 20.5625 25.9375 20.625L25.375 20.8125C25 21 24.6875 21.1875 24.4375 21.5C23.875 22.125 23.5 22.9375 23.3125 23.8125Z" fill="#B2B6B8"/>
<path d="M26.125 27.1875C27.2641 27.1875 28.1875 26.0682 28.1875 24.6875C28.1875 23.3068 27.2641 22.1875 26.125 22.1875C24.9859 22.1875 24.0625 23.3068 24.0625 24.6875C24.0625 26.0682 24.9859 27.1875 26.125 27.1875Z" fill="#4C5359"/>
<path d="M16.6875 23.8125C16.6875 23.8125 16.4375 21.25 14.375 20.4375C12.0625 19.5 10.5 21.75 10.0625 23.0625C9.43754 24.9375 10.25 27.0625 10.4375 27.5C10.5625 27.8125 12.3125 29.3125 16.1875 27.875C16.1875 27.875 17.125 25.75 16.6875 23.8125Z" fill="white"/>
<path d="M16.6874 23.8125C16.4999 22.9375 16.1249 22.125 15.5624 21.5625C15.3124 21.25 14.9374 21 14.6249 20.875L14.0624 20.6875C13.8749 20.625 13.6874 20.625 13.4999 20.625C12.7499 20.625 12.0624 20.9375 11.4999 21.5C10.9374 22.0625 10.4999 22.8125 10.3124 23.5625C10.1249 24.375 10.1249 25.1875 10.3124 26.0625C10.3749 26.5 10.4999 26.875 10.6874 27.25L10.7499 27.375V27.4375L10.9374 27.625C11.0624 27.75 11.2499 27.8125 11.4374 27.9375C12.1249 28.25 12.9374 28.375 13.7499 28.375C14.5624 28.375 15.3749 28.1875 16.1874 28C15.4374 28.375 14.6249 28.625 13.8124 28.75C12.9999 28.875 12.1249 28.875 11.2499 28.5C11.0624 28.4375 10.8124 28.3125 10.6249 28.1875C10.4999 28.125 10.4374 28.0625 10.3124 27.9375L10.2499 27.875L10.1874 27.8125L10.1249 27.75L10.0624 27.5C9.87493 27.0625 9.74993 26.625 9.62493 26.1875C9.43743 25.25 9.37493 24.3125 9.56243 23.3125C9.81243 22.375 10.3124 21.5 10.9999 20.875C11.6874 20.25 12.5624 19.8125 13.4999 19.9375C13.7499 19.9375 13.9374 20 14.1874 20.0625C14.3749 20.125 14.6249 20.25 14.8124 20.3125C15.1874 20.5625 15.5624 20.875 15.8124 21.25C16.3749 22 16.6249 22.875 16.6874 23.8125Z" fill="#B2B6B8"/>
<path d="M13.875 27.1875C15.0141 27.1875 15.9375 26.0682 15.9375 24.6875C15.9375 23.3068 15.0141 22.1875 13.875 22.1875C12.7359 22.1875 11.8125 23.3068 11.8125 24.6875C11.8125 26.0682 12.7359 27.1875 13.875 27.1875Z" fill="#4C5359"/>
<path d="M17.9375 31H22.125V34.4375H17.9375V31Z" fill="white"/>
<path d="M26.25 32.375C25.5625 32.75 24.6875 32.875 23.9375 32.8125C23.125 32.75 22.375 32.5625 21.75 32.1875C21.125 31.8125 20.6875 31.25 20.5625 30.6875L20 28.0625L19.4375 30.6875C19.3125 31.25 18.875 31.8125 18.25 32.1875C17.625 32.5625 16.875 32.8125 16.125 32.8125C15.3125 32.8125 14.5 32.6875 13.75 32.375C13.0625 32.0625 12.4375 31.5 12.125 30.8125C12.1875 31.5625 12.6875 32.3125 13.375 32.8125C14.125 33.3125 15.0625 33.625 16 33.625C17 33.6875 18 33.4375 18.8125 33C19.25 32.75 19.625 32.4375 19.9375 32.0625C20.25 32.4375 20.625 32.75 21.0625 33C21.875 33.4375 22.9375 33.6875 23.875 33.625C24.875 33.5625 25.8125 33.3125 26.5625 32.8125C27.3125 32.3125 27.8125 31.5625 27.8125 30.8125C27.5625 31.5 27 32.0625 26.25 32.375Z" fill="#B2B6B8"/>
<path d="M22.7501 27.5625C22.1876 27.125 20.5001 27.0625 20.0001 27.0625C19.5001 27.0625 17.7501 27.125 17.2501 27.5625C16.8751 27.875 17.1876 28.6875 18.1876 29.375C18.8751 29.8125 19.5001 29.9375 20.0001 29.9375C20.5001 29.9375 21.1251 29.8125 21.8126 29.375C22.8751 28.6875 23.1876 27.875 22.7501 27.5625Z" fill="#FF94A4"/>
</svg>
